HIERARCHY
ROOT Hips
{
  OFFSET 0 0 0
  CHANNELS 6 Xposition Yposition Zposition Zrotation Xrotation Yrotation
  JOINT Spine
  {
    OFFSET 0 10.1816 0.131521
    CHANNELS 3 Zrotation Xrotation Yrotation
    JOINT Spine1
    {
      OFFSET 0 10.0835 -1.0008
      CHANNELS 3 Zrotation Xrotation Yrotation
      JOINT Spine2
      {
        OFFSET 0 9.10001 -1.37342
        CHANNELS 3 Zrotation Xrotation Yrotation
        JOINT Neck
        {
          OFFSET 0 16.6717 -2.51617
          CHANNELS 3 Zrotation Xrotation Yrotation
          JOINT Head
          {
            OFFSET 0 9.61788 1.68501
            CHANNELS 3 Zrotation Xrotation Yrotation
            End Site
            {
              OFFSET 0 0 0
            }
          }
        }
        JOINT LeftShoulder
        {
          OFFSET 4.57045 10.946 -2.62799
          CHANNELS 3 Zrotation Xrotation Yrotation
          JOINT LeftArm
          {
            OFFSET 10.5924 -0.524583 -2.23212
            CHANNELS 3 Zrotation Xrotation Yrotation
            JOINT LeftForeArm
            {
              OFFSET 27.8415 -8.94286e-05 3.74589e-05
              CHANNELS 3 Zrotation Xrotation Yrotation
              JOINT LeftHand
              {
                OFFSET 28.3288 -1.74407e-05 3.78045e-05
                CHANNELS 3 Zrotation Xrotation Yrotation
                End Site
                {
                  OFFSET 0 0 0
                }
              }
            }
          }
        }
        JOINT RightShoulder
        {
          OFFSET -4.56997 10.9462 -2.62802
          CHANNELS 3 Zrotation Xrotation Yrotation
          JOINT RightArm
          {
            OFFSET -10.5928 -0.524798 -2.2321
            CHANNELS 3 Zrotation Xrotation Yrotation
            JOINT RightForeArm
            {
              OFFSET -27.8415 -3.30792e-05 1.16763e-05
              CHANNELS 3 Zrotation Xrotation Yrotation
              JOINT RightHand
              {
                OFFSET -28.3288 0 5.5816e-05
                CHANNELS 3 Zrotation Xrotation Yrotation
                End Site
                {
                  OFFSET 0 0 0
                }
              }
            }
          }
        }
      }
    }
  }
  JOINT RightUpLeg
  {
    OFFSET -8.2078 -6.75166 -1.59956
    CHANNELS 3 Zrotation Xrotation Yrotation
    JOINT RightLeg
    {
      OFFSET 0 -44.3705 0.286156
      CHANNELS 3 Zrotation Xrotation Yrotation
      JOINT RightFoot
      {
        OFFSET 0 -44.4277 -2.98379
        CHANNELS 3 Zrotation Xrotation Yrotation
        JOINT RightToeBase
        {
          OFFSET 0 -8.72867 10.7106
          CHANNELS 3 Zrotation Xrotation Yrotation
          End Site
          {
            OFFSET 0 0 0
          }
        }
      }
    }
  }
  JOINT LeftUpLeg
  {
    OFFSET 8.20778 -6.75171 -1.59956
    CHANNELS 3 Zrotation Xrotation Yrotation
    JOINT LeftLeg
    {
      OFFSET 0 -44.3705 0.284643
      CHANNELS 3 Zrotation Xrotation Yrotation
      JOINT LeftFoot
      {
        OFFSET 0 -44.4279 -2.98219
        CHANNELS 3 Zrotation Xrotation Yrotation
        JOINT LeftToeBase
        {
          OFFSET 0 -8.72867 10.7106
          CHANNELS 3 Zrotation Xrotation Yrotation
          End Site
          {
            OFFSET 0 0 0
          }
        }
      }
    }
  }
}
MOTION
Frames:	18
Frame Time:	0.0333333
-0.051228 97.9313 -0.299134 2.14189 -5.44023 -15.7345 -0.986488 7.03234 -0.870061 -0.136518 2.12375 -0.552959 -0.131377 2.12789 -0.542346 1.21789 -0.00383104 2.46531 -4.65949 -4.83734 13.9065 -8.8929 3.22341 -2.78478 -65.0767 9.19843 -5.15048 -9.11312e-006 -1.09824e-006 -21.7144 -4.76352 16.2124 -3.45308 11.4102 4.03975 10.5716 71.8623 -23.0107 3.69164 4.77817e-006 -2.79409e-006 15.6474 8.01659 28.78 2.69118 -1.61919 -0.81737 -11.0247 -0.642685 21.0784 -9.61677 0.405978 -16.2465 -3.39249 0.000338595 0.0816697 -3.99071e-006 2.96076 -6.45494 8.40392 1.17957 15.2592 1.05698 -6.02443 -3.59962 0.0319593 2.98237e-006 1.27803 -4.50293e-006 
-0.0955825 97.8854 -0.162407 2.18817 -5.48063 -16.4757 -1.0885 7.14483 -0.965701 -0.170471 2.08171 -0.611377 -0.164368 2.08621 -0.601016 1.23137 0.0747816 2.49897 -4.63363 -4.7992 14.1708 -8.74001 3.2184 -2.86908 -65.2331 9.3356 -5.3088 9.57855e-006 4.66179e-006 -20.9861 -3.89125 15.9052 -3.90783 11.4112 4.03899 10.5574 71.8353 -22.8216 3.58518 -2.49601e-006 4.34277e-006 15.3986 7.57991 28.8903 3.45201 -1.92142 -0.943382 -11.1917 -0.595517 21.482 -9.6315 0.559934 -16.4995 -2.48981 -1.09023e-006 0.0812163 1.26941e-005 2.90828 -6.29856 8.55105 1.17762 15.3537 1.53301 -6.11532 -3.58962 0.0565273 3.89256e-006 0.686138 -2.61786e-006 
-0.134101 97.8141 -0.00917053 2.17208 -5.51774 -17.3634 -1.15026 7.26561 -1.06469 -0.201789 2.05791 -0.67282 -0.194648 2.06275 -0.662785 1.22583 0.130362 2.53907 -4.58545 -4.76902 14.447 -8.54357 3.20937 -2.94726 -65.3702 9.62603 -5.21526 5.97741e-006 5.19503e-006 -21.0753 -3.05218 15.3387 -3.56184 11.4308 4.03985 10.538 71.6807 -22.5435 3.04275 -1.12846e-006 -4.98226e-008 16.0378 7.37059 28.5654 3.92164 -2.207 -1.12358 -11.3194 -0.544237 22.0082 -9.64587 0.743412 -16.8051 -1.49323 -4.82306e-007 0.0747078 -1.09221e-005 2.94335 -6.23851 8.70676 1.17739 15.699 2.19586 -6.25173 -3.66778 0.0671167 -1.16476e-006 -3.5217e-005 -2.1243e-006 
-0.160287 97.724 0.17499 2.09404 -5.54565 -18.3091 -1.16699 7.39408 -1.19874 -0.233317 2.07613 -0.757925 -0.224863 2.08137 -0.748214 1.19892 0.136309 2.59326 -4.55269 -4.77381 14.7732 -8.28681 3.1951 -3.04166 -65.3681 10.0862 -5.16382 -1.70056e-005 -1.09865e-007 -21.9789 -2.64498 14.5337 -2.32105 11.4723 4.04213 10.5116 71.3003 -22.0927 2.19926 -2.01439e-006 3.33261e-006 17.5566 7.72565 27.8269 4.07698 -2.44211 -1.28493 -11.3747 -0.49376 22.5631 -9.65888 0.949521 -17.1434 -0.50549 0.000333408 0.0782675 -2.37049e-005 3.06887 -6.35095 8.78603 1.18132 16.497 2.93878 -6.44368 -4.24411 0.00136277 -3.41727e-007 -3.45361e-005 -8.49579e-007 
-0.16727 97.6371 0.38239 1.99689 -5.54614 -19.1811 -1.15813 7.53131 -1.38749 -0.267007 2.13966 -0.87938 -0.256823 2.14543 -0.869894 1.16146 0.0914182 2.66536 -4.58386 -4.85875 15.1926 -7.93789 3.17649 -3.19125 -64.9675 10.8121 -5.8363 -6.86078e-006 7.97343e-006 -22.7966 -2.7905 13.508 -0.937858 11.5052 4.0427 10.4762 70.5525 -21.3876 1.34843 -1.6751e-006 -3.1126e-006 19.7462 8.76299 26.7055 4.05703 -2.60404 -1.36423 -11.3674 -0.469659 22.9954 -9.01752 0.958125 -17.4677 -0.292899 0.000317165 0.073932 8.18239e-007 3.15594 -6.49278 8.74342 1.18708 17.3037 3.20035 -6.5679 -4.88929 -0.125889 1.3024e-006 -7.14423e-005 2.18279e-006 
-0.139703 97.5652 0.586901 1.89434 -5.47902 -19.9278 -1.13254 7.68134 -1.61293 -0.301357 2.21524 -1.02378 -0.289078 2.22164 -1.01452 1.13301 0.0384619 2.74947 -4.69579 -5.03941 15.7104 -7.4676 3.15579 -3.4214 -63.8676 11.8926 -7.84661 -1.25079e-005 4.1001e-006 -22.5387 -3.12036 12.3026 -0.581172 11.478 4.0382 10.4486 69.2402 -20.4289 0.78609 -8.39772e-006 -3.21186e-006 22.4253 10.0982 25.1443 4.07359 -2.70731 -1.38269 -11.338 -0.453119 23.2532 -8.28926 0.934824 -17.7348 -0.276074 0.000313742 0.0702247 1.52479e-005 3.0485 -6.75827 8.63744 1.19879 18.1983 2.18187 -6.35652 -5.75211 -0.219201 3.08042e-008 -4.41718e-005 -8.44883e-007 
-0.0532948 97.4955 0.774247 1.75763 -5.31413 -20.6139 -1.07512 7.84493 -1.83086 -0.33508 2.25843 -1.16009 -0.320574 2.26534 -1.15129 1.12299 0.0348607 2.83376 -4.84117 -5.26172 16.2965 -6.89315 3.13105 -3.70974 -61.8839 13.243 -11.2029 3.75492e-006 -1.45981e-007 -21.564 -3.02746 10.9709 -1.56566 11.3882 4.0326 10.4904 67.1186 -19.3454 0.685591 -7.60862e-006 2.52953e-006 25.6307 10.9435 23.0149 4.23045 -2.76633 -1.44898 -11.3572 -0.435817 23.4414 -7.56011 0.926366 -17.952 -0.270811 0.000320112 0.061915 8.24476e-006 2.71535 -7.67211 8.61473 1.20615 19.9428 -0.292106 -4.90709 -7.08884 -0.218562 -0.0119885 0.00801341 2.09114e-006 
0.107513 97.4181 0.965359 1.58345 -5.0506 -21.3149 -0.991082 8.00772 -2.00984 -0.376046 2.25281 -1.26813 -0.359395 2.25999 -1.26028 1.12289 0.10749 2.90969 -4.92709 -5.42751 16.9669 -6.30295 3.09019 -3.99961 -58.8424 14.6003 -15.4179 6.99623e-006 -7.72014e-006 -21.4209 -2.11218 9.52449 -2.95817 11.3308 4.03844 10.6957 63.9429 -18.3514 1.171 2.03266e-005 1.1471e-007 29.3947 10.6017 20.3643 4.47551 -2.82986 -1.62317 -11.4839 -0.415345 23.6516 -6.69478 0.923543 -18.1452 -0.28358 0.000315111 0.0502167 3.86857e-006 2.16486 -9.23275 8.71733 1.21324 22.3675 -3.43074 -2.13272 -8.55365 -0.0523231 -4.42722e-007 -0.217685 5.46113e-006 
0.329625 97.3725 1.20554 1.44581 -4.71315 -22.0404 -0.943269 8.14645 -2.1475 -0.442344 2.2174 -1.34971 -0.42376 2.22456 -1.34342 1.11973 0.242472 2.9764 -4.88313 -5.46019 17.8374 -5.80061 3.01331 -4.26066 -54.498 15.6643 -20.178 -2.20258e-006 1.95133e-006 -23.0439 -0.377763 7.84002 -3.64792 11.4298 4.06238 11.1063 59.5998 -17.6379 2.43295 -1.64015e-005 -6.93894e-007 33.5109 8.94846 17.5571 4.6721 -2.96596 -1.79675 -11.7078 -0.38425 23.6949 -5.63929 0.909887 -18.236 -0.316231 -0.000819801 0.0412618 1.07067e-005 1.84916 -11.3185 8.85481 1.18348 24.5001 -6.27565 -1.78173 -7.68562 0.0336399 -1.07908e-006 -1.95498 2.09882e-006 
0.581614 97.3824 1.52782 1.376 -4.32187 -22.7973 -0.976795 8.25969 -2.25457 -0.549714 2.18138 -1.41185 -0.529492 2.18833 -1.40775 1.11112 0.412022 3.03775 -4.73429 -5.3485 19.0414 -5.40634 2.88393 -4.53268 -48.806 16.0866 -25.6637 7.57345e-006 -2.9409e-006 -25.7444 1.91368 5.68025 -3.48276 11.6997 4.0864 11.6263 54.2691 -17.3077 4.73861 -2.70028e-005 -2.82434e-006 37.6033 6.43931 15.0773 4.69527 -3.16862 -1.88245 -11.948 -0.329751 23.4299 -4.45744 0.875924 -18.1687 -0.363871 -2.70778e-006 0.0346038 -1.44277e-005 1.67131 -13.713 8.91917 1.06777 26.1382 -7.43835 -1.9414 -6.77506 0.087445 2.08574e-007 -0.939938 4.41286e-006 
0.832226 97.4558 1.94886 1.37106 -3.93232 -23.6463 -1.14621 8.38079 -2.32535 -0.698658 2.1616 -1.45231 -0.677158 2.16832 -1.45087 1.10077 0.602811 3.09772 -4.6001 -5.1456 20.6136 -5.02891 2.69992 -4.90365 -42.2082 15.3294 -31.9738 2.90483e-006 -4.3913e-006 -28.2628 4.47071 2.98237 -3.0961 11.9967 4.071 12.0685 48.4125 -17.4494 8.30252 3.26756e-006 5.151e-006 41.3193 3.65191 13.216 4.51319 -3.42822 -1.80396 -12.1127 -0.247903 22.796 -3.27267 0.855906 -17.9186 -0.411879 -2.66783e-006 0.0325207 -1.17977e-005 1.66619 -16.2912 8.91068 0.925719 27.3451 -6.79369 -2.21865 -6.33636 0.112843 -3.7309e-007 -1.10585 -4.42606e-006 
1.06096 97.5694 2.48309 1.39755 -3.6073 -24.6275 -1.45387 8.53997 -2.35004 -0.874185 2.1604 -1.46441 -0.851825 2.16698 -1.46576 1.08294 0.823056 3.1561 -4.59152 -4.92553 22.4519 -4.54132 2.47392 -5.45076 -35.5466 12.8568 -38.4256 -7.4627e-006 -4.23117e-006 -30.1379 7.06449 0.125571 -2.95179 12.1159 3.98499 12.3396 42.5518 -18.2944 13.0892 2.37565e-007 -1.14421e-006 44.4057 0.844735 12.0204 4.22386 -3.75631 -1.52426 -12.1982 -0.138688 21.8856 -2.16176 0.902121 -17.5431 -0.44708 -0.00397794 0.0295622 2.83429e-006 1.82385 -18.7355 8.88895 0.763885 27.7827 -5.36793 -2.27539 -5.67513 0.121683 -2.13821e-007 -0.838639 -4.5102e-006 
1.25297 97.6902 3.1552 1.43112 -3.34284 -25.7048 -1.87189 8.71692 -2.31821 -1.05647 2.16807 -1.44185 -1.03385 2.17462 -1.44587 1.04423 1.09222 3.20397 -4.70864 -4.71636 24.3446 -3.86894 2.22488 -6.20809 -29.5792 8.57946 -43.9193 -5.43877e-006 -2.15563e-006 -31.5739 9.56082 -2.23231 -2.96783 11.9245 3.83073 12.5527 37.0512 -20.2063 18.6779 3.33716e-006 -1.75022e-006 46.7158 -2.03955 11.4947 3.99011 -4.15528 -1.04561 -12.2751 -0.00370288 20.8006 -1.11701 1.0383 -17.1328 -0.468602 -0.00909693 0.0263977 3.34338e-006 2.16208 -21.0006 8.89876 0.581299 27.6876 -4.45602 -1.97749 -4.91852 0.121081 -4.54064e-007 -0.474559 -8.50143e-006 
1.39578 97.7903 3.99031 1.44285 -3.04656 -26.8179 -2.35757 8.85241 -2.21722 -1.23594 2.16004 -1.37647 -1.21392 2.16655 -1.38298 0.986015 1.42476 3.22743 -4.86398 -4.47559 26.0843 -3.01277 1.97048 -7.17157 -24.616 2.90727 -47.9345 -8.05947e-006 -2.45453e-006 -32.545 11.9146 -3.64213 -2.90682 11.4251 3.63379 12.8679 32.0457 -23.3705 24.3997 8.69103e-007 -3.84252e-008 48.218 -5.02529 11.7118 3.90886 -4.55473 -0.411624 -12.39 0.15566 19.5641 -0.080684 1.24993 -16.7373 -0.484444 -0.0150804 0.0225905 3.33384e-005 2.78728 -23.1835 9.00781 0.374262 27.3051 -4.42881 -1.70236 -4.18146 0.124013 4.87647e-007 -0.611849 -2.81943e-007 
1.47924 97.8434 5.00032 1.41471 -2.62158 -27.931 -2.87867 8.90719 -2.05217 -1.42334 2.10575 -1.26978 -1.40277 2.11202 -1.27905 0.932345 1.81585 3.22438 -4.98879 -4.15195 27.6255 -2.02934 1.7263 -8.29816 -20.6223 -3.57567 -50.7206 3.19715e-006 6.29257e-006 -32.7192 14.1006 -4.16656 -2.73748 10.7274 3.40846 13.2062 27.5425 -27.527 29.8021 6.71116e-006 -5.47173e-006 48.9393 -7.87661 12.6959 3.96571 -4.96426 0.140236 -12.5251 0.339416 18.5665 1.07726 1.99058 -16.5779 -0.432922 -0.457092 0.27197 0.00466623 3.82487 -25.3882 9.32135 0.168166 26.7822 -4.64343 -1.9504 -3.63701 0.144982 7.32637e-007 -1.22852 4.12546e-006 
1.49749 97.8314 6.19036 1.35879 -2.03637 -28.9717 -3.41432 8.89761 -1.8752 -1.63962 1.99753 -1.15287 -1.62072 2.00335 -1.16561 0.901464 2.23801 3.21761 -5.06774 -3.76941 29.0839 -1.00852 1.50809 -9.48321 -17.4428 -10.3549 -52.677 1.71223e-006 2.74807e-006 -32.1329 16.0866 -4.22778 -2.59151 9.92064 3.14238 13.2486 23.7084 -32.1684 34.9798 -6.39885e-006 5.36637e-006 48.8932 -10.2453 14.2892 4.13638 -5.23218 0.765021 -12.6557 0.531855 17.4201 2.18938 2.60797 -16.4741 -0.387179 -0.736618 0.438407 0.0120072 5.2479 -27.5759 9.88805 0.00600534 26.0707 -4.392 -2.66702 -3.299 0.181084 1.52312e-006 -1.71322 1.47058e-005 
1.45682 97.7426 7.56773 1.31571 -1.32646 -29.8109 -3.9682 8.88088 -1.76361 -1.88463 1.86629 -1.07474 -1.86672 1.87183 -1.09155 0.876089 2.65262 3.24236 -5.08536 -3.43769 30.5221 -0.0402081 1.32969 -10.5657 -14.9452 -17.0361 -53.9761 1.05188e-006 -3.52676e-007 -31.4297 17.8661 -4.25118 -2.62271 8.89459 2.81757 12.8485 20.9882 -36.9821 40.1961 -1.09199e-006 3.0024e-006 48.1621 -11.9951 16.196 4.48621 -5.3708 1.52701 -12.8163 0.705041 16.0608 3.1056 3.00453 -16.3999 -0.362193 -0.749583 0.445983 0.0123718 6.85261 -29.6618 10.6366 -0.0818673 25.1114 -3.46245 -3.49272 -3.00712 0.220776 -2.64782e-006 -1.71382 -4.98496e-006 
1.37705 97.5724 9.13485 1.30137 -0.529365 -30.3737 -4.56007 8.91612 -1.75416 -2.12073 1.75262 -1.06027 -2.1027 1.75852 -1.08078 0.822316 3.02403 3.31589 -5.01626 -3.2785 31.8047 0.842174 1.19414 -11.4055 -13.1428 -23.3193 -54.7568 7.64711e-006 9.75264e-006 -31.2823 19.5315 -4.47722 -2.99775 7.31722 2.44002 12.37 19.6274 -41.9409 45.094 -4.17815e-006 -2.98538e-006 47.044 -13.35 18.1006 5.11816 -5.52624 2.25576 -13.0465 0.842137 14.9255 3.85271 3.78344 -16.5786 -0.286426 -0.967137 0.575406 0.0206604 8.46569 -31.6645 11.4668 -0.08799 24.0495 -2.01514 -4.29363 -2.65492 0.259357 9.02738e-007 -1.50267 9.52242e-007 
